<?xml version="1.0" encoding="UTF-8" standalone="no"?>
<svg
   xmlns:dc="http://purl.org/dc/elements/1.1/"
   xmlns:cc="http://creativecommons.org/ns#"
   xmlns:rdf="http://www.w3.org/1999/02/22-rdf-syntax-ns#"
   xmlns:svg="http://www.w3.org/2000/svg"
   xmlns="http://www.w3.org/2000/svg"
   xmlns:sodipodi="http://sodipodi.sourceforge.net/DTD/sodipodi-0.dtd"
   xmlns:inkscape="http://www.inkscape.org/namespaces/inkscape"
   width="110mm"
   height="30mm"
   viewBox="0 0 110 30"
   version="1.1"
   id="svg8"
   inkscape:version="1.0beta2 (2b71d25, 2019-12-03)"
   sodipodi:docname="iminuit_logo.svg">
  <defs
     id="defs2">
    <rect
       x="47.316719"
       y="107.07321"
       width="52.334068"
       height="8.4735155"
       id="rect860" />
    <marker
       inkscape:stockid="Arrow2Mend"
       orient="auto"
       refY="0"
       refX="0"
       id="Arrow2Mend"
       style="overflow:visible"
       inkscape:isstock="true">
      <path
         id="path938"
         style="fill:#3344b5;fill-opacity:1;fill-rule:evenodd;stroke:#3344b5;stroke-width:0.625;stroke-linejoin:round;stroke-opacity:1"
         d="M 8.7185878,4.0337352 -2.2072895,0.01601326 8.7185884,-4.0017078 c -1.7454984,2.3720609 -1.7354408,5.6174519 -6e-7,8.035443 z"
         transform="scale(-0.6)"
         inkscape:connector-curvature="0" />
    </marker>
    <marker
       inkscape:stockid="Arrow1Send"
       orient="auto"
       refY="0"
       refX="0"
       id="Arrow1Send"
       style="overflow:visible"
       inkscape:isstock="true">
      <path
         id="path926"
         d="M 0,0 5,-5 -12.5,0 5,5 Z"
         style="fill:#0000ff;fill-opacity:1;fill-rule:evenodd;stroke:#0000ff;stroke-width:1pt;stroke-opacity:1"
         transform="matrix(-0.2,0,0,-0.2,-1.2,0)"
         inkscape:connector-curvature="0" />
    </marker>
    <marker
       inkscape:stockid="Arrow1Mend"
       orient="auto"
       refY="0"
       refX="0"
       id="Arrow1Mend"
       style="overflow:visible"
       inkscape:isstock="true">
      <path
         id="path920"
         d="M 0,0 5,-5 -12.5,0 5,5 Z"
         style="fill:#0000ff;fill-opacity:1;fill-rule:evenodd;stroke:#0000ff;stroke-width:1pt;stroke-opacity:1"
         transform="matrix(-0.4,0,0,-0.4,-4,0)"
         inkscape:connector-curvature="0" />
    </marker>
    <marker
       inkscape:stockid="Arrow1Lstart"
       orient="auto"
       refY="0"
       refX="0"
       id="Arrow1Lstart"
       style="overflow:visible"
       inkscape:isstock="true">
      <path
         id="path911"
         d="M 0,0 5,-5 -12.5,0 5,5 Z"
         style="fill:#0000ff;fill-opacity:1;fill-rule:evenodd;stroke:#0000ff;stroke-width:1pt;stroke-opacity:1"
         transform="matrix(0.8,0,0,0.8,10,0)"
         inkscape:connector-curvature="0" />
    </marker>
  </defs>
  <sodipodi:namedview
     inkscape:snap-global="false"
     id="base"
     pagecolor="#ffffff"
     bordercolor="#666666"
     borderopacity="1.0"
     inkscape:pageopacity="0.0"
     inkscape:pageshadow="2"
     inkscape:zoom="1.4144975"
     inkscape:cx="261.09936"
     inkscape:cy="68.770378"
     inkscape:document-units="mm"
     inkscape:current-layer="g879"
     inkscape:document-rotation="0"
     showgrid="false"
     showguides="true"
     inkscape:guide-bbox="true"
     inkscape:window-width="1440"
     inkscape:window-height="782"
     inkscape:window-x="388"
     inkscape:window-y="49"
     inkscape:window-maximized="0"
     fit-margin-top="0"
     fit-margin-left="0"
     fit-margin-right="0"
     fit-margin-bottom="0" />
  <metadata
     id="metadata5">
    <rdf:RDF>
      <cc:Work
         rdf:about="">
        <dc:format>image/svg+xml</dc:format>
        <dc:type
           rdf:resource="http://purl.org/dc/dcmitype/StillImage" />
        <dc:title />
      </cc:Work>
    </rdf:RDF>
  </metadata>
  <g
     inkscape:label="Layer 1"
     inkscape:groupmode="layer"
     id="layer1"
     transform="translate(-45.405964,-92.165336)">
    <path
       d="m 55.010465,118.11147 q -0.809598,0.48232 -1.464166,0.84405 -0.637344,0.36174 -1.171334,0.60289 -0.53399,0.25838 -0.964627,0.37896 -0.430637,0.12058 -0.809598,0.12058 -0.585667,0 -0.930177,-0.55121 -0.344509,-0.53399 -0.344509,-1.46417 0,-0.51677 0.120578,-1.46417 0.137804,-0.96462 0.327284,-2.11873 0.189481,-1.17134 0.413412,-2.4288 0.223932,-1.27468 0.413412,-2.41156 0.18948,-1.15411 0.310059,-2.03261 0.137804,-0.89573 0.137804,-1.32637 0,-0.39618 -0.05168,-0.62011 -0.05168,-0.24116 -0.137804,-0.34451 -0.08613,-0.12058 -0.223931,-0.15503 -0.137804,-0.0344 -0.292833,-0.0344 -0.137804,0 -0.430638,0.0689 -0.275608,0.0517 -0.568441,0.1378 -0.327284,0.0861 -0.72347,0.20671 l -0.241157,-0.63734 q 0.72347,-0.32729 1.429715,-0.62012 0.723471,-0.31006 1.343589,-0.53399 0.620117,-0.22393 1.085205,-0.36174 0.465089,-0.1378 0.68902,-0.1378 0.482314,0 0.671794,0.32728 0.206706,0.32729 0.206706,1.11966 0,0.49954 -0.137804,1.48139 -0.120578,0.96463 -0.327284,2.17041 -0.206706,1.20579 -0.430638,2.53215 -0.223931,1.30914 -0.430637,2.51492 -0.206706,1.20579 -0.34451,2.18764 -0.120578,0.96463 -0.120578,1.46417 0,0.53399 0.103353,0.77514 0.120578,0.24116 0.413412,0.24116 0.53399,0 1.016304,-0.1378 0.499539,-0.13781 1.205784,-0.43064 z m 0.465088,-20.498322 q 0,0.482314 -0.155029,0.964631 -0.137804,0.465087 -0.413412,0.861267 -0.275608,0.378957 -0.671794,0.620114 -0.396186,0.24116 -0.8785,0.24116 -0.53399,0 -0.826823,-0.310057 -0.292834,-0.31006 -0.292834,-0.895727 0,-0.465087 0.15503,-0.930172 0.155029,-0.482314 0.430637,-0.8785 0.275608,-0.396186 0.654569,-0.637343 0.396186,-0.258382 0.878499,-0.258382 0.533991,0 0.826824,0.327284 0.292833,0.310059 0.292833,0.895725 z"
       style="fill:#d40000;fill-opacity:1;stroke-width:0.264583"
       id="path869"
       inkscape:connector-curvature="0" />
    <path
       d="m 76.283944,119.35171 v -0.7407 q 1.240235,-0.32728 1.808676,-0.56844 0.585667,-0.24116 0.585667,-0.48231 v -9.11229 q 0,-1.05075 -0.120579,-1.73977 -0.103352,-0.70625 -0.344509,-1.10243 -0.223932,-0.39619 -0.602892,-0.55122 -0.361736,-0.17225 -0.8785,-0.17225 -0.568442,0 -1.205785,0.32728 -0.637343,0.31006 -1.309137,0.91295 -0.671794,0.58567 -1.360813,1.44694 -0.671794,0.84405 -1.326363,1.91203 v 8.07876 q 0,0.24115 0.53399,0.48231 0.53399,0.22393 1.894804,0.56844 v 0.7407 h -7.40696 v -0.7407 q 1.240235,-0.32728 1.808676,-0.56844 0.585667,-0.24116 0.585667,-0.48231 v -9.11229 q 0,-1.05075 -0.103353,-1.73977 -0.103353,-0.70625 -0.34451,-1.10243 -0.223932,-0.39619 -0.602892,-0.55122 -0.361736,-0.17225 -0.895726,-0.17225 -1.171333,0 -2.463245,1.20578 -1.274686,1.20578 -2.738852,3.39342 v 8.07876 q 0,0.25838 0.637343,0.53399 0.654568,0.2756 1.774225,0.51676 v 0.7407 h -7.40696 v -0.7407 q 1.136882,-0.29283 1.774225,-0.51676 0.637343,-0.24116 0.637343,-0.53399 v -10.45588 q 0,-0.68902 -0.0689,-1.0852 -0.05168,-0.39619 -0.310058,-0.60289 -0.241157,-0.22394 -0.723471,-0.32729 -0.482314,-0.10335 -1.309137,-0.2067 v -0.68902 q 0.654568,-0.10336 1.205784,-0.24116 0.551216,-0.15503 1.050755,-0.32728 0.499539,-0.17226 0.947402,-0.37897 0.465088,-0.2067 0.930176,-0.43063 l 0.602892,0.60289 0.189481,3.94464 q 0.775147,-1.13689 1.567519,-1.98093 0.792373,-0.86128 1.56752,-1.42972 0.775147,-0.56844 1.498617,-0.84405 0.723471,-0.29283 1.343588,-0.29283 0.826824,0 1.515843,0.2067 0.706245,0.18948 1.205785,0.6718 0.516764,0.46509 0.809598,1.24023 0.292833,0.77515 0.292833,1.92926 v 0.36173 q 0.72347,-1.0852 1.498617,-1.8948 0.775147,-0.82682 1.533069,-1.37804 0.775147,-0.56844 1.498618,-0.84405 0.740696,-0.29283 1.378039,-0.29283 0.826823,0 1.515843,0.22393 0.706245,0.22393 1.205784,0.68902 0.516765,0.46509 0.809598,1.18856 0.292833,0.70624 0.292833,1.67087 v 10.97264 q 0,0.24115 0.53399,0.48231 0.533991,0.22393 1.894804,0.56844 v 0.7407 z"
       style="fill:#1a1a1a;fill-opacity:1;stroke-width:0.264583"
       id="path871"
       inkscape:connector-curvature="0" />
    <path
       d="m 85.379003,119.35171 v -0.7407 q 1.171335,-0.24116 1.791452,-0.51676 0.620107,-0.29284 0.620107,-0.53399 v -9.74963 q 0,-0.8785 -0.0345,-1.41249 -0.0345,-0.55122 -0.25838,-0.84405 -0.223927,-0.31006 -0.723467,-0.44786 -0.482307,-0.13781 -1.395262,-0.22393 v -0.68902 q 0.53399,-0.10336 1.119655,-0.24116 0.602887,-0.15503 1.188554,-0.32728 0.585667,-0.18949 1.119654,-0.39619 0.533987,-0.20671 0.981844,-0.41341 h 0.585667 v 14.74502 q 0,0.2067 0.568437,0.51676 0.585657,0.29283 1.843118,0.53399 v 0.7407 z m 5.512131,-21.721336 q 0,0.482314 -0.15503,0.912955 -0.15503,0.430627 -0.430637,0.757917 -0.25838,0.310057 -0.620107,0.499537 -0.361737,0.18948 -0.792377,0.18948 -0.775134,0 -1.119641,-0.43064 -0.32729,-0.430637 -0.32729,-1.223004 0,-0.482314 0.15503,-0.912951 0.15503,-0.430637 0.430637,-0.740696 0.27561,-0.327284 0.620117,-0.499539 0.361727,-0.18948 0.775134,-0.18948 1.464164,0 1.464164,1.636421 z"
       style="fill:#1a1a1a;fill-opacity:1;stroke-width:0.264583"
       id="path873"
       inkscape:connector-curvature="0" />
    <path
       d="m 105.29159,119.35171 v -0.7407 q 1.24023,-0.32728 1.8259,-0.56844 0.58567,-0.24116 0.58567,-0.48231 v -9.11229 q 0,-1.05075 -0.12058,-1.70532 -0.12058,-0.65457 -0.37896,-1.03353 -0.25839,-0.37896 -0.68902,-0.51677 -0.41341,-0.1378 -1.01631,-0.1378 -0.53399,0 -1.18856,0.25838 -0.65456,0.25839 -1.41249,0.82683 -0.74069,0.56844 -1.56751,1.49861 -0.8096,0.91295 -1.636427,2.25654 v 7.66535 q 0,0.25838 0.637347,0.53399 0.65457,0.2756 1.77422,0.51676 v 0.7407 h -7.406927 v -0.7407 q 1.136871,-0.29283 1.774218,-0.51676 0.637337,-0.24116 0.637337,-0.53399 v -10.45588 q 0,-0.67179 -0.0517,-1.06798 -0.0517,-0.39618 -0.292827,-0.62011 -0.22393,-0.22394 -0.706237,-0.32729 -0.482317,-0.10335 -1.360811,-0.2067 v -0.68902 q 1.171331,-0.18948 2.170395,-0.53399 0.999077,-0.36174 1.963701,-0.84405 l 0.602887,0.60289 0.189477,4.28915 q 0.757917,-1.15411 1.670867,-2.04984 0.91296,-0.91295 1.84313,-1.53307 0.93018,-0.63734 1.79145,-0.96462 0.8785,-0.34451 1.5503,-0.34451 0.74069,0 1.42971,0.22393 0.68902,0.22393 1.20579,0.68902 0.53399,0.46509 0.84405,1.18856 0.32728,0.70624 0.32728,1.67087 v 10.97264 q 0,0.24115 0.51676,0.48231 0.53399,0.22393 1.89481,0.56844 v 0.7407 z"
       style="fill:#1a1a1a;fill-opacity:1;stroke-width:0.264583"
       id="path875"
       inkscape:connector-curvature="0" />
    <path
       d="m 131.66382,117.93922 q -0.63735,0.41341 -1.22301,0.77514 -0.58567,0.34451 -1.08521,0.6029 -0.49954,0.25838 -0.8785,0.39618 -0.37896,0.15503 -0.58566,0.15503 -0.6029,0 -0.98186,-0.79237 -0.37896,-0.8096 -0.48231,-2.58382 -1.06798,1.06798 -1.96371,1.73977 -0.8785,0.65457 -1.63642,1.0163 -0.74069,0.36174 -1.37804,0.48232 -0.62011,0.1378 -1.17133,0.1378 -0.8096,0 -1.55029,-0.22393 -0.7407,-0.22393 -1.30914,-0.8096 -0.56844,-0.60289 -0.91295,-1.63642 -0.32729,-1.03353 -0.32729,-2.65272 v -7.44142 q 0,-0.82682 -0.0517,-1.27468 -0.0517,-0.46509 -0.27561,-0.68902 -0.20671,-0.24116 -0.65457,-0.32729 -0.44786,-0.0861 -1.24023,-0.17225 v -0.68902 q 0.62011,-0.0689 1.1541,-0.17226 0.55122,-0.10335 1.05076,-0.24115 0.51676,-0.13781 1.03353,-0.31006 0.51676,-0.18948 1.0852,-0.41341 l 0.48232,0.67179 v 10.11136 q 0,1.20579 0.17225,2.01539 0.18948,0.80959 0.51677,1.29191 0.34451,0.48231 0.82682,0.68902 0.49954,0.2067 1.11966,0.2067 0.55121,0 1.11965,-0.15503 0.58567,-0.17225 1.18856,-0.51676 0.62012,-0.36174 1.29191,-0.91295 0.6718,-0.56844 1.42972,-1.37804 v -7.73425 q 0,-0.77514 -0.0861,-1.24023 -0.0689,-0.46509 -0.32728,-0.72347 -0.25838,-0.25838 -0.7407,-0.36174 -0.46509,-0.10335 -1.25746,-0.1378 v -0.68902 q 1.24024,-0.15503 2.37712,-0.48231 1.13688,-0.32729 2.10151,-0.65457 l 0.51676,0.67179 v 11.4894 q 0,1.06798 0.0689,1.73978 0.0861,0.67179 0.32729,0.84405 0.2067,0.1378 0.70624,0.0689 0.49954,-0.0861 1.37804,-0.46509 z"
       style="fill:#1a1a1a;fill-opacity:1;stroke-width:0.264583"
       id="path877"
       inkscape:connector-curvature="0" />
    <path
       inkscape:connector-curvature="0"
       d="m 137.53772,102.81532 c -0.29857,0.1378 -0.62586,0.27561 -0.98185,0.41341 -0.35599,0.1378 -0.72938,0.27003 -1.11983,0.39636 -0.39044,0.11483 -0.78663,0.22376 -1.18855,0.32711 -0.39045,0.0919 -0.76332,0.17243 -1.11932,0.24133 v 0.68885 c 0.60864,0.0574 1.07373,0.13188 1.39527,0.22376 0.33302,0.0919 0.57418,0.24133 0.72347,0.44803 0.14932,0.19522 0.23545,0.4764 0.25838,0.84388 0.0229,0.35599 0.0341,0.82717 0.0341,1.41283 v 9.74928 c 0,0.16076 -0.20671,0.33911 -0.62012,0.53433 -0.41342,0.18374 -1.01022,0.35599 -1.79111,0.51677 v 0.74052 h 7.40679 v -0.74052 c -0.83831,-0.16078 -1.45285,-0.33912 -1.8433,-0.53434 -0.37896,-0.2067 -0.56844,-0.37896 -0.56844,-0.51676 v -14.74484 z"
       style="fill:#1a1a1a;fill-opacity:1;stroke-width:0.264583"
       id="path879" />
    <path
       d="m 153.144,117.33632 q -0.84405,0.62012 -1.67087,1.10244 -0.82682,0.46508 -1.58475,0.79237 -0.74069,0.31006 -1.37803,0.46509 -0.63735,0.17225 -1.08521,0.17225 -0.60289,0 -1.15411,-0.22393 -0.53399,-0.22393 -0.9474,-0.72347 -0.41341,-0.51677 -0.65457,-1.34359 -0.24116,-0.82682 -0.24116,-2.03261 v -10.57645 h -2.22208 l -0.36174,-0.48231 1.34359,-1.15411 h 1.24023 v -4.237464 l 2.04984,-1.791446 0.53399,0.430637 V 103.332 h 5.63273 l 0.49954,0.49954 q -0.15503,0.24116 -0.39618,0.51677 -0.22394,0.2756 -0.46509,0.51676 -0.24116,0.24116 -0.48232,0.44786 -0.22393,0.18948 -0.39618,0.25839 -0.41341,-0.20671 -1.25746,-0.39619 -0.84405,-0.20671 -2.23932,-0.20671 h -0.89572 v 9.09506 q 0,1.03353 0.0861,1.72255 0.10335,0.68902 0.32728,1.10243 0.22393,0.39619 0.56844,0.56844 0.36174,0.17226 0.8785,0.17226 0.60289,0 1.51584,-0.24116 0.91296,-0.24116 2.25654,-0.93018 z"
       style="fill:#1a1a1a;fill-opacity:1;stroke-width:0.264583"
       id="path881"
       inkscape:connector-curvature="0" />
    <g
       id="g879">
      <path
         sodipodi:nodetypes="czc"
         inkscape:connector-curvature="0"
         id="path907"
         d="m 134.74119,96.268918 c -12.78651,-6.211606 -15.22857,1.282056 -15.37095,3.743192 -0.14238,2.46114 3.94711,8.1642 1.87433,15.23914"
         style="fill:none;stroke:#2764e4;stroke-width:0.912719;stroke-linecap:butt;stroke-linejoin:miter;stroke-miterlimit:4;stroke-dasharray:2.73816, 0.91271899999999995;stroke-dashoffset:0;stroke-opacity:1" />
      <path
         d="m 136.59715,95.83357 c 0.5958,0 1.09652,0.209169 1.50218,0.627508 0.41832,0.418321 0.62749,0.925384 0.62749,1.52119 0,0.583128 -0.20917,1.083861 -0.62749,1.502183 -0.41834,0.418338 -0.91905,0.627489 -1.50218,0.627489 -0.59581,0 -1.10289,-0.209151 -1.52121,-0.627489 -0.41832,-0.418322 -0.62749,-0.919055 -0.62749,-1.502183 0,-0.595806 0.20917,-1.102869 0.62749,-1.52119 0.41832,-0.418339 0.9254,-0.627508 1.52121,-0.627508 z"
         style="fill:none;fill-opacity:1;stroke:#2764e4;stroke-width:0.912719;stroke-miterlimit:4;stroke-dasharray:1.82543, 0.91271899999999995;stroke-dashoffset:0;stroke-opacity:1"
         id="path869-5-8"
         inkscape:connector-curvature="0"
         sodipodi:nodetypes="scscscscs" />
      <path
         sodipodi:nodetypes="scscscscs"
         inkscape:connector-curvature="0"
         id="path869-5"
         style="fill:#2764e4;fill-opacity:1;stroke:none;stroke-width:0.456359;stroke-opacity:1"
         d="m 121.4024,113.56302 c 0.5958,0 1.09652,0.20917 1.50218,0.62751 0.41832,0.41832 0.62749,0.92539 0.62749,1.52119 0,0.58313 -0.20917,1.08386 -0.62749,1.50218 -0.41833,0.41834 -0.91906,0.62749 -1.50218,0.62749 -0.59581,0 -1.10288,-0.20915 -1.52121,-0.62749 -0.41833,-0.41832 -0.62749,-0.91905 -0.62749,-1.50218 0,-0.5958 0.20916,-1.10287 0.62749,-1.52119 0.41833,-0.41834 0.9254,-0.62751 1.52121,-0.62751 z" />
    </g>
  </g>
</svg>
