<?xml version="1.0" encoding="utf-8" standalone="no"?>
<!DOCTYPE svg PUBLIC "-//W3C//DTD SVG 1.1//EN"
  "http://www.w3.org/Graphics/SVG/1.1/DTD/svg11.dtd">
<!-- Created with matplotlib (https://matplotlib.org/) -->
<svg height="345.6pt" version="1.1" viewBox="0 0 460.8 345.6" width="460.8pt" xmlns="http://www.w3.org/2000/svg" xmlns:xlink="http://www.w3.org/1999/xlink">
 <defs>
  <style type="text/css">
*{stroke-linecap:butt;stroke-linejoin:round;}
  </style>
 </defs>
 <g id="figure_1">
  <g id="patch_1">
   <path d="M 0 345.6 
L 460.8 345.6 
L 460.8 0 
L 0 0 
z
" style="fill:#ffffff;"/>
  </g>
  <g id="axes_1">
   <g id="patch_2">
    <path d="M 51.578365 311.521635 
L 454.29976 311.521635 
L 454.29976 18.118365 
L 51.578365 18.118365 
z
" style="fill:#ffffff;"/>
   </g>
   <g id="PathCollection_1">
    <path clip-path="url(#p05237524e4)" d="M 184.09433 116.979226 
L 191.165398 120.51476 
L 191.165398 113.443692 
z
" style="fill:#1f77b4;stroke:#1f77b4;"/>
    <path clip-path="url(#p05237524e4)" d="M 224.001716 95.869037 
L 236.57605 102.156204 
L 236.57605 89.58187 
z
" style="fill:#1f77b4;stroke:#1f77b4;"/>
    <path clip-path="url(#p05237524e4)" d="M 227.448483 108.329564 
L 249.809163 119.509904 
L 249.809163 97.149224 
z
" style="fill:#1f77b4;stroke:#1f77b4;"/>
   </g>
   <g id="PathCollection_2">
    <path clip-path="url(#p05237524e4)" d="M 247.587232 123.88213 
L 235.012898 117.594963 
L 235.012898 130.169298 
z
" style="fill:#ff7f0e;stroke:#ff7f0e;"/>
    <path clip-path="url(#p05237524e4)" d="M 318.338031 129.700029 
L 295.977351 118.519689 
L 295.977351 140.880369 
z
" style="fill:#ff7f0e;stroke:#ff7f0e;"/>
   </g>
   <g id="PathCollection_3">
    <path clip-path="url(#p05237524e4)" d="M 253.029491 119.870829 
L 246.742324 132.445163 
L 259.316658 132.445163 
z
" style="fill:#2ca02c;stroke:#2ca02c;"/>
    <path clip-path="url(#p05237524e4)" d="M 429.190049 92.124673 
L 418.00971 114.485353 
L 440.370389 114.485353 
z
" style="fill:#2ca02c;stroke:#2ca02c;"/>
   </g>
   <g id="PathCollection_4">
    <path clip-path="url(#p05237524e4)" d="M 194.013438 144.789485 
L 197.548972 137.718417 
L 190.477905 137.718417 
z
" style="fill:#d62728;stroke:#d62728;"/>
    <path clip-path="url(#p05237524e4)" d="M 243.697202 147.574336 
L 249.984369 135.000001 
L 237.410035 135.000001 
z
" style="fill:#d62728;stroke:#d62728;"/>
    <path clip-path="url(#p05237524e4)" d="M 241.751842 149.333111 
L 252.932182 126.972432 
L 230.571502 126.972432 
z
" style="fill:#d62728;stroke:#d62728;"/>
   </g>
   <g id="PathCollection_5">
    <path clip-path="url(#p05237524e4)" d="M 219.191769 115.087457 
L 218.397992 117.530451 
L 215.829277 117.530451 
L 217.907411 119.040304 
L 217.113635 121.483298 
L 219.191769 119.973445 
L 221.269904 121.483298 
L 220.476127 119.040304 
L 222.554262 117.530451 
L 219.985546 117.530451 
z
" style="fill:#9467bd;stroke:#9467bd;"/>
    <path clip-path="url(#p05237524e4)" d="M 194.013438 112.83712 
L 192.601881 117.181445 
L 188.033987 117.181445 
L 191.729491 119.866386 
L 190.317934 124.210712 
L 194.013438 121.525771 
L 197.708943 124.210712 
L 196.297386 119.866386 
L 199.99289 117.181445 
L 195.424995 117.181445 
z
" style="fill:#9467bd;stroke:#9467bd;"/>
    <path clip-path="url(#p05237524e4)" d="M 206.836075 112.086365 
L 204.325932 119.811789 
L 196.202939 119.811789 
L 202.774579 124.586364 
L 200.264436 132.311789 
L 206.836075 127.537214 
L 213.407713 132.311789 
L 210.897571 124.586364 
L 217.46921 119.811789 
L 209.346217 119.811789 
z
" style="fill:#9467bd;stroke:#9467bd;"/>
   </g>
   <g id="PathCollection_6">
    <path clip-path="url(#p05237524e4)" d="M 152.065335 126.842006 
L 153.833102 125.074239 
L 155.600869 126.842006 
L 157.368636 125.074239 
L 155.600869 123.306472 
L 157.368636 121.538705 
L 155.600869 119.770938 
L 153.833102 121.538705 
L 152.065335 119.770938 
L 150.297568 121.538705 
L 152.065335 123.306472 
L 150.297568 125.074239 
z
" style="fill:#8c564b;stroke:#8c564b;"/>
    <path clip-path="url(#p05237524e4)" d="M 120.060386 126.004223 
L 123.20397 122.860639 
L 126.347553 126.004223 
L 129.491137 122.860639 
L 126.347553 119.717056 
L 129.491137 116.573472 
L 126.347553 113.429888 
L 123.20397 116.573472 
L 120.060386 113.429888 
L 116.916803 116.573472 
L 120.060386 119.717056 
L 116.916803 122.860639 
z
" style="fill:#8c564b;stroke:#8c564b;"/>
    <path clip-path="url(#p05237524e4)" d="M 79.126986 76.46921 
L 84.717156 70.87904 
L 90.307326 76.46921 
L 95.897496 70.87904 
L 90.307326 65.28887 
L 95.897496 59.6987 
L 90.307326 54.10853 
L 84.717156 59.6987 
L 79.126986 54.10853 
L 73.536816 59.6987 
L 79.126986 65.28887 
L 73.536816 70.87904 
z
" style="fill:#8c564b;stroke:#8c564b;"/>
   </g>
   <g id="PathCollection_7">
    <path clip-path="url(#p05237524e4)" d="M 232.295618 160.651124 
L 234.652641 160.651124 
L 234.652641 158.294102 
L 237.009664 158.294102 
L 237.009664 155.937079 
L 234.652641 155.937079 
L 234.652641 153.580057 
L 232.295618 153.580057 
L 232.295618 155.937079 
L 229.938596 155.937079 
L 229.938596 158.294102 
L 232.295618 158.294102 
z
" style="fill:#e377c2;stroke:#e377c2;"/>
    <path clip-path="url(#p05237524e4)" d="M 390.148049 51.619746 
L 394.339493 51.619746 
L 394.339493 47.428301 
L 398.530938 47.428301 
L 398.530938 43.236856 
L 394.339493 43.236856 
L 394.339493 39.045411 
L 390.148049 39.045411 
L 390.148049 43.236856 
L 385.956604 43.236856 
L 385.956604 47.428301 
L 390.148049 47.428301 
z
" style="fill:#e377c2;stroke:#e377c2;"/>
    <path clip-path="url(#p05237524e4)" d="M 388.516991 45.260373 
L 395.970551 45.260373 
L 395.970551 37.806813 
L 403.424111 37.806813 
L 403.424111 30.353253 
L 395.970551 30.353253 
L 395.970551 22.899693 
L 388.516991 22.899693 
L 388.516991 30.353253 
L 381.063431 30.353253 
L 381.063431 37.806813 
L 388.516991 37.806813 
z
" style="fill:#e377c2;stroke:#e377c2;"/>
   </g>
   <g id="PathCollection_8">
    <path clip-path="url(#p05237524e4)" d="M 306.360127 281.732429 
L 302.997635 284.175423 
L 304.281993 288.12827 
L 308.438262 288.12827 
L 309.72262 284.175423 
z
" style="fill:#7f7f7f;stroke:#7f7f7f;"/>
    <path clip-path="url(#p05237524e4)" d="M 272.741299 260.47416 
L 266.761848 264.818485 
L 269.045795 271.847752 
L 276.436803 271.847752 
L 278.720751 264.818485 
z
" style="fill:#7f7f7f;stroke:#7f7f7f;"/>
    <path clip-path="url(#p05237524e4)" d="M 303.406829 283.599662 
L 292.773694 291.325087 
L 296.835191 303.825087 
L 309.978468 303.825087 
L 314.039965 291.325087 
z
" style="fill:#7f7f7f;stroke:#7f7f7f;"/>
   </g>
   <g id="matplotlib.axis_1">
    <g id="xtick_1">
     <g id="line2d_1">
      <defs>
       <path d="M 0 0 
L 0 3.5 
" id="mb5bca22b0c" style="stroke:#000000;stroke-width:0.8;"/>
      </defs>
      <g>
       <use style="stroke:#000000;stroke-width:0.8;" x="308.192806" xlink:href="#mb5bca22b0c" y="311.521635"/>
      </g>
     </g>
     <g id="text_1">
      <!-- $\mathdefault{10^{2}}$ -->
      <defs>
       <path d="M 12.40625 8.296875 
L 28.515625 8.296875 
L 28.515625 63.921875 
L 10.984375 60.40625 
L 10.984375 69.390625 
L 28.421875 72.90625 
L 38.28125 72.90625 
L 38.28125 8.296875 
L 54.390625 8.296875 
L 54.390625 0 
L 12.40625 0 
z
" id="DejaVuSans-49"/>
       <path d="M 31.78125 66.40625 
Q 24.171875 66.40625 20.328125 58.90625 
Q 16.5 51.421875 16.5 36.375 
Q 16.5 21.390625 20.328125 13.890625 
Q 24.171875 6.390625 31.78125 6.390625 
Q 39.453125 6.390625 43.28125 13.890625 
Q 47.125 21.390625 47.125 36.375 
Q 47.125 51.421875 43.28125 58.90625 
Q 39.453125 66.40625 31.78125 66.40625 
z
M 31.78125 74.21875 
Q 44.046875 74.21875 50.515625 64.515625 
Q 56.984375 54.828125 56.984375 36.375 
Q 56.984375 17.96875 50.515625 8.265625 
Q 44.046875 -1.421875 31.78125 -1.421875 
Q 19.53125 -1.421875 13.0625 8.265625 
Q 6.59375 17.96875 6.59375 36.375 
Q 6.59375 54.828125 13.0625 64.515625 
Q 19.53125 74.21875 31.78125 74.21875 
z
" id="DejaVuSans-48"/>
       <path d="M 19.1875 8.296875 
L 53.609375 8.296875 
L 53.609375 0 
L 7.328125 0 
L 7.328125 8.296875 
Q 12.9375 14.109375 22.625 23.890625 
Q 32.328125 33.6875 34.8125 36.53125 
Q 39.546875 41.84375 41.421875 45.53125 
Q 43.3125 49.21875 43.3125 52.78125 
Q 43.3125 58.59375 39.234375 62.25 
Q 35.15625 65.921875 28.609375 65.921875 
Q 23.96875 65.921875 18.8125 64.3125 
Q 13.671875 62.703125 7.8125 59.421875 
L 7.8125 69.390625 
Q 13.765625 71.78125 18.9375 73 
Q 24.125 74.21875 28.421875 74.21875 
Q 39.75 74.21875 46.484375 68.546875 
Q 53.21875 62.890625 53.21875 53.421875 
Q 53.21875 48.921875 51.53125 44.890625 
Q 49.859375 40.875 45.40625 35.40625 
Q 44.1875 33.984375 37.640625 27.21875 
Q 31.109375 20.453125 19.1875 8.296875 
z
" id="DejaVuSans-50"/>
      </defs>
      <g transform="translate(299.392806 326.120072)scale(0.1 -0.1)">
       <use transform="translate(0 0.765625)" xlink:href="#DejaVuSans-49"/>
       <use transform="translate(63.623047 0.765625)" xlink:href="#DejaVuSans-48"/>
       <use transform="translate(128.203125 39.046875)scale(0.7)" xlink:href="#DejaVuSans-50"/>
      </g>
     </g>
    </g>
    <g id="xtick_2">
     <g id="line2d_2">
      <defs>
       <path d="M 0 0 
L 0 2 
" id="mbb52c09303" style="stroke:#000000;stroke-width:0.6;"/>
      </defs>
      <g>
       <use style="stroke:#000000;stroke-width:0.6;" x="113.032508" xlink:href="#mbb52c09303" y="311.521635"/>
      </g>
     </g>
    </g>
    <g id="xtick_3">
     <g id="line2d_3">
      <g>
       <use style="stroke:#000000;stroke-width:0.6;" x="162.199171" xlink:href="#mbb52c09303" y="311.521635"/>
      </g>
     </g>
    </g>
    <g id="xtick_4">
     <g id="line2d_4">
      <g>
       <use style="stroke:#000000;stroke-width:0.6;" x="197.083474" xlink:href="#mbb52c09303" y="311.521635"/>
      </g>
     </g>
    </g>
    <g id="xtick_5">
     <g id="line2d_5">
      <g>
       <use style="stroke:#000000;stroke-width:0.6;" x="224.141841" xlink:href="#mbb52c09303" y="311.521635"/>
      </g>
     </g>
    </g>
    <g id="xtick_6">
     <g id="line2d_6">
      <g>
       <use style="stroke:#000000;stroke-width:0.6;" x="246.250136" xlink:href="#mbb52c09303" y="311.521635"/>
      </g>
     </g>
    </g>
    <g id="xtick_7">
     <g id="line2d_7">
      <g>
       <use style="stroke:#000000;stroke-width:0.6;" x="264.942434" xlink:href="#mbb52c09303" y="311.521635"/>
      </g>
     </g>
    </g>
    <g id="xtick_8">
     <g id="line2d_8">
      <g>
       <use style="stroke:#000000;stroke-width:0.6;" x="281.134439" xlink:href="#mbb52c09303" y="311.521635"/>
      </g>
     </g>
    </g>
    <g id="xtick_9">
     <g id="line2d_9">
      <g>
       <use style="stroke:#000000;stroke-width:0.6;" x="295.416799" xlink:href="#mbb52c09303" y="311.521635"/>
      </g>
     </g>
    </g>
    <g id="xtick_10">
     <g id="line2d_10">
      <g>
       <use style="stroke:#000000;stroke-width:0.6;" x="392.243771" xlink:href="#mbb52c09303" y="311.521635"/>
      </g>
     </g>
    </g>
    <g id="xtick_11">
     <g id="line2d_11">
      <g>
       <use style="stroke:#000000;stroke-width:0.6;" x="441.410434" xlink:href="#mbb52c09303" y="311.521635"/>
      </g>
     </g>
    </g>
    <g id="text_2">
     <!-- $N_\mathrm{call}$ / $N_\mathrm{par}$ -->
     <defs>
      <path d="M 16.890625 72.90625 
L 30.171875 72.90625 
L 50.296875 10.40625 
L 62.5 72.90625 
L 72.125 72.90625 
L 57.90625 0 
L 44.578125 0 
L 24.515625 62.890625 
L 12.3125 0 
L 2.6875 0 
z
" id="DejaVuSans-Oblique-78"/>
      <path d="M 48.78125 52.59375 
L 48.78125 44.1875 
Q 44.96875 46.296875 41.140625 47.34375 
Q 37.3125 48.390625 33.40625 48.390625 
Q 24.65625 48.390625 19.8125 42.84375 
Q 14.984375 37.3125 14.984375 27.296875 
Q 14.984375 17.28125 19.8125 11.734375 
Q 24.65625 6.203125 33.40625 6.203125 
Q 37.3125 6.203125 41.140625 7.25 
Q 44.96875 8.296875 48.78125 10.40625 
L 48.78125 2.09375 
Q 45.015625 0.34375 40.984375 -0.53125 
Q 36.96875 -1.421875 32.421875 -1.421875 
Q 20.0625 -1.421875 12.78125 6.34375 
Q 5.515625 14.109375 5.515625 27.296875 
Q 5.515625 40.671875 12.859375 48.328125 
Q 20.21875 56 33.015625 56 
Q 37.15625 56 41.109375 55.140625 
Q 45.0625 54.296875 48.78125 52.59375 
z
" id="DejaVuSans-99"/>
      <path d="M 34.28125 27.484375 
Q 23.390625 27.484375 19.1875 25 
Q 14.984375 22.515625 14.984375 16.5 
Q 14.984375 11.71875 18.140625 8.90625 
Q 21.296875 6.109375 26.703125 6.109375 
Q 34.1875 6.109375 38.703125 11.40625 
Q 43.21875 16.703125 43.21875 25.484375 
L 43.21875 27.484375 
z
M 52.203125 31.203125 
L 52.203125 0 
L 43.21875 0 
L 43.21875 8.296875 
Q 40.140625 3.328125 35.546875 0.953125 
Q 30.953125 -1.421875 24.3125 -1.421875 
Q 15.921875 -1.421875 10.953125 3.296875 
Q 6 8.015625 6 15.921875 
Q 6 25.140625 12.171875 29.828125 
Q 18.359375 34.515625 30.609375 34.515625 
L 43.21875 34.515625 
L 43.21875 35.40625 
Q 43.21875 41.609375 39.140625 45 
Q 35.0625 48.390625 27.6875 48.390625 
Q 23 48.390625 18.546875 47.265625 
Q 14.109375 46.140625 10.015625 43.890625 
L 10.015625 52.203125 
Q 14.9375 54.109375 19.578125 55.046875 
Q 24.21875 56 28.609375 56 
Q 40.484375 56 46.34375 49.84375 
Q 52.203125 43.703125 52.203125 31.203125 
z
" id="DejaVuSans-97"/>
      <path d="M 9.421875 75.984375 
L 18.40625 75.984375 
L 18.40625 0 
L 9.421875 0 
z
" id="DejaVuSans-108"/>
      <path id="DejaVuSans-32"/>
      <path d="M 25.390625 72.90625 
L 33.6875 72.90625 
L 8.296875 -9.28125 
L 0 -9.28125 
z
" id="DejaVuSans-47"/>
      <path d="M 18.109375 8.203125 
L 18.109375 -20.796875 
L 9.078125 -20.796875 
L 9.078125 54.6875 
L 18.109375 54.6875 
L 18.109375 46.390625 
Q 20.953125 51.265625 25.265625 53.625 
Q 29.59375 56 35.59375 56 
Q 45.5625 56 51.78125 48.09375 
Q 58.015625 40.1875 58.015625 27.296875 
Q 58.015625 14.40625 51.78125 6.484375 
Q 45.5625 -1.421875 35.59375 -1.421875 
Q 29.59375 -1.421875 25.265625 0.953125 
Q 20.953125 3.328125 18.109375 8.203125 
z
M 48.6875 27.296875 
Q 48.6875 37.203125 44.609375 42.84375 
Q 40.53125 48.484375 33.40625 48.484375 
Q 26.265625 48.484375 22.1875 42.84375 
Q 18.109375 37.203125 18.109375 27.296875 
Q 18.109375 17.390625 22.1875 11.75 
Q 26.265625 6.109375 33.40625 6.109375 
Q 40.53125 6.109375 44.609375 11.75 
Q 48.6875 17.390625 48.6875 27.296875 
z
" id="DejaVuSans-112"/>
      <path d="M 41.109375 46.296875 
Q 39.59375 47.171875 37.8125 47.578125 
Q 36.03125 48 33.890625 48 
Q 26.265625 48 22.1875 43.046875 
Q 18.109375 38.09375 18.109375 28.8125 
L 18.109375 0 
L 9.078125 0 
L 9.078125 54.6875 
L 18.109375 54.6875 
L 18.109375 46.1875 
Q 20.953125 51.171875 25.484375 53.578125 
Q 30.03125 56 36.53125 56 
Q 37.453125 56 38.578125 55.875 
Q 39.703125 55.765625 41.0625 55.515625 
z
" id="DejaVuSans-114"/>
     </defs>
     <g transform="translate(228.489062 339.49976)scale(0.1 -0.1)">
      <use transform="translate(0 0.09375)" xlink:href="#DejaVuSans-Oblique-78"/>
      <use transform="translate(74.804688 -16.3125)scale(0.7)" xlink:href="#DejaVuSans-99"/>
      <use transform="translate(113.291016 -16.3125)scale(0.7)" xlink:href="#DejaVuSans-97"/>
      <use transform="translate(156.186523 -16.3125)scale(0.7)" xlink:href="#DejaVuSans-108"/>
      <use transform="translate(175.634766 -16.3125)scale(0.7)" xlink:href="#DejaVuSans-108"/>
      <use transform="translate(197.817383 0.09375)" xlink:href="#DejaVuSans-32"/>
      <use transform="translate(229.604492 0.09375)" xlink:href="#DejaVuSans-47"/>
      <use transform="translate(263.295898 0.09375)" xlink:href="#DejaVuSans-32"/>
      <use transform="translate(295.083008 0.09375)" xlink:href="#DejaVuSans-Oblique-78"/>
      <use transform="translate(369.887695 -16.3125)scale(0.7)" xlink:href="#DejaVuSans-112"/>
      <use transform="translate(414.321289 -16.3125)scale(0.7)" xlink:href="#DejaVuSans-97"/>
      <use transform="translate(457.216797 -16.3125)scale(0.7)" xlink:href="#DejaVuSans-114"/>
     </g>
    </g>
   </g>
   <g id="matplotlib.axis_2">
    <g id="ytick_1">
     <g id="line2d_12">
      <defs>
       <path d="M 0 0 
L -3.5 0 
" id="m6aa781a0e8" style="stroke:#000000;stroke-width:0.8;"/>
      </defs>
      <g>
       <use style="stroke:#000000;stroke-width:0.8;" x="51.578365" xlink:href="#m6aa781a0e8" y="270.627819"/>
      </g>
     </g>
     <g id="text_3">
      <!-- $\mathdefault{10^{-10}}$ -->
      <defs>
       <path d="M 10.59375 35.5 
L 73.1875 35.5 
L 73.1875 27.203125 
L 10.59375 27.203125 
z
" id="DejaVuSans-8722"/>
      </defs>
      <g transform="translate(16.678365 274.427038)scale(0.1 -0.1)">
       <use transform="translate(0 0.765625)" xlink:href="#DejaVuSans-49"/>
       <use transform="translate(63.623047 0.765625)" xlink:href="#DejaVuSans-48"/>
       <use transform="translate(128.203125 39.046875)scale(0.7)" xlink:href="#DejaVuSans-8722"/>
       <use transform="translate(186.855469 39.046875)scale(0.7)" xlink:href="#DejaVuSans-49"/>
       <use transform="translate(231.391602 39.046875)scale(0.7)" xlink:href="#DejaVuSans-48"/>
      </g>
     </g>
    </g>
    <g id="ytick_2">
     <g id="line2d_13">
      <g>
       <use style="stroke:#000000;stroke-width:0.8;" x="51.578365" xlink:href="#m6aa781a0e8" y="227.953779"/>
      </g>
     </g>
     <g id="text_4">
      <!-- $\mathdefault{10^{-8}}$ -->
      <defs>
       <path d="M 31.78125 34.625 
Q 24.75 34.625 20.71875 30.859375 
Q 16.703125 27.09375 16.703125 20.515625 
Q 16.703125 13.921875 20.71875 10.15625 
Q 24.75 6.390625 31.78125 6.390625 
Q 38.8125 6.390625 42.859375 10.171875 
Q 46.921875 13.96875 46.921875 20.515625 
Q 46.921875 27.09375 42.890625 30.859375 
Q 38.875 34.625 31.78125 34.625 
z
M 21.921875 38.8125 
Q 15.578125 40.375 12.03125 44.71875 
Q 8.5 49.078125 8.5 55.328125 
Q 8.5 64.0625 14.71875 69.140625 
Q 20.953125 74.21875 31.78125 74.21875 
Q 42.671875 74.21875 48.875 69.140625 
Q 55.078125 64.0625 55.078125 55.328125 
Q 55.078125 49.078125 51.53125 44.71875 
Q 48 40.375 41.703125 38.8125 
Q 48.828125 37.15625 52.796875 32.3125 
Q 56.78125 27.484375 56.78125 20.515625 
Q 56.78125 9.90625 50.3125 4.234375 
Q 43.84375 -1.421875 31.78125 -1.421875 
Q 19.734375 -1.421875 13.25 4.234375 
Q 6.78125 9.90625 6.78125 20.515625 
Q 6.78125 27.484375 10.78125 32.3125 
Q 14.796875 37.15625 21.921875 38.8125 
z
M 18.3125 54.390625 
Q 18.3125 48.734375 21.84375 45.5625 
Q 25.390625 42.390625 31.78125 42.390625 
Q 38.140625 42.390625 41.71875 45.5625 
Q 45.3125 48.734375 45.3125 54.390625 
Q 45.3125 60.0625 41.71875 63.234375 
Q 38.140625 66.40625 31.78125 66.40625 
Q 25.390625 66.40625 21.84375 63.234375 
Q 18.3125 60.0625 18.3125 54.390625 
z
" id="DejaVuSans-56"/>
      </defs>
      <g transform="translate(21.078365 231.752998)scale(0.1 -0.1)">
       <use transform="translate(0 0.765625)" xlink:href="#DejaVuSans-49"/>
       <use transform="translate(63.623047 0.765625)" xlink:href="#DejaVuSans-48"/>
       <use transform="translate(128.203125 39.046875)scale(0.7)" xlink:href="#DejaVuSans-8722"/>
       <use transform="translate(186.855469 39.046875)scale(0.7)" xlink:href="#DejaVuSans-56"/>
      </g>
     </g>
    </g>
    <g id="ytick_3">
     <g id="line2d_14">
      <g>
       <use style="stroke:#000000;stroke-width:0.8;" x="51.578365" xlink:href="#m6aa781a0e8" y="185.279739"/>
      </g>
     </g>
     <g id="text_5">
      <!-- $\mathdefault{10^{-6}}$ -->
      <defs>
       <path d="M 33.015625 40.375 
Q 26.375 40.375 22.484375 35.828125 
Q 18.609375 31.296875 18.609375 23.390625 
Q 18.609375 15.53125 22.484375 10.953125 
Q 26.375 6.390625 33.015625 6.390625 
Q 39.65625 6.390625 43.53125 10.953125 
Q 47.40625 15.53125 47.40625 23.390625 
Q 47.40625 31.296875 43.53125 35.828125 
Q 39.65625 40.375 33.015625 40.375 
z
M 52.59375 71.296875 
L 52.59375 62.3125 
Q 48.875 64.0625 45.09375 64.984375 
Q 41.3125 65.921875 37.59375 65.921875 
Q 27.828125 65.921875 22.671875 59.328125 
Q 17.53125 52.734375 16.796875 39.40625 
Q 19.671875 43.65625 24.015625 45.921875 
Q 28.375 48.1875 33.59375 48.1875 
Q 44.578125 48.1875 50.953125 41.515625 
Q 57.328125 34.859375 57.328125 23.390625 
Q 57.328125 12.15625 50.6875 5.359375 
Q 44.046875 -1.421875 33.015625 -1.421875 
Q 20.359375 -1.421875 13.671875 8.265625 
Q 6.984375 17.96875 6.984375 36.375 
Q 6.984375 53.65625 15.1875 63.9375 
Q 23.390625 74.21875 37.203125 74.21875 
Q 40.921875 74.21875 44.703125 73.484375 
Q 48.484375 72.75 52.59375 71.296875 
z
" id="DejaVuSans-54"/>
      </defs>
      <g transform="translate(21.078365 189.078958)scale(0.1 -0.1)">
       <use transform="translate(0 0.765625)" xlink:href="#DejaVuSans-49"/>
       <use transform="translate(63.623047 0.765625)" xlink:href="#DejaVuSans-48"/>
       <use transform="translate(128.203125 39.046875)scale(0.7)" xlink:href="#DejaVuSans-8722"/>
       <use transform="translate(186.855469 39.046875)scale(0.7)" xlink:href="#DejaVuSans-54"/>
      </g>
     </g>
    </g>
    <g id="ytick_4">
     <g id="line2d_15">
      <g>
       <use style="stroke:#000000;stroke-width:0.8;" x="51.578365" xlink:href="#m6aa781a0e8" y="142.6057"/>
      </g>
     </g>
     <g id="text_6">
      <!-- $\mathdefault{10^{-4}}$ -->
      <defs>
       <path d="M 37.796875 64.3125 
L 12.890625 25.390625 
L 37.796875 25.390625 
z
M 35.203125 72.90625 
L 47.609375 72.90625 
L 47.609375 25.390625 
L 58.015625 25.390625 
L 58.015625 17.1875 
L 47.609375 17.1875 
L 47.609375 0 
L 37.796875 0 
L 37.796875 17.1875 
L 4.890625 17.1875 
L 4.890625 26.703125 
z
" id="DejaVuSans-52"/>
      </defs>
      <g transform="translate(21.078365 146.404918)scale(0.1 -0.1)">
       <use transform="translate(0 0.684375)" xlink:href="#DejaVuSans-49"/>
       <use transform="translate(63.623047 0.684375)" xlink:href="#DejaVuSans-48"/>
       <use transform="translate(128.203125 38.965625)scale(0.7)" xlink:href="#DejaVuSans-8722"/>
       <use transform="translate(186.855469 38.965625)scale(0.7)" xlink:href="#DejaVuSans-52"/>
      </g>
     </g>
    </g>
    <g id="ytick_5">
     <g id="line2d_16">
      <g>
       <use style="stroke:#000000;stroke-width:0.8;" x="51.578365" xlink:href="#m6aa781a0e8" y="99.93166"/>
      </g>
     </g>
     <g id="text_7">
      <!-- $\mathdefault{10^{-2}}$ -->
      <g transform="translate(21.078365 103.730878)scale(0.1 -0.1)">
       <use transform="translate(0 0.765625)" xlink:href="#DejaVuSans-49"/>
       <use transform="translate(63.623047 0.765625)" xlink:href="#DejaVuSans-48"/>
       <use transform="translate(128.203125 39.046875)scale(0.7)" xlink:href="#DejaVuSans-8722"/>
       <use transform="translate(186.855469 39.046875)scale(0.7)" xlink:href="#DejaVuSans-50"/>
      </g>
     </g>
    </g>
    <g id="ytick_6">
     <g id="line2d_17">
      <g>
       <use style="stroke:#000000;stroke-width:0.8;" x="51.578365" xlink:href="#m6aa781a0e8" y="57.25762"/>
      </g>
     </g>
     <g id="text_8">
      <!-- $\mathdefault{10^{0}}$ -->
      <g transform="translate(26.978365 61.056838)scale(0.1 -0.1)">
       <use transform="translate(0 0.765625)" xlink:href="#DejaVuSans-49"/>
       <use transform="translate(63.623047 0.765625)" xlink:href="#DejaVuSans-48"/>
       <use transform="translate(128.203125 39.046875)scale(0.7)" xlink:href="#DejaVuSans-48"/>
      </g>
     </g>
    </g>
    <g id="text_9">
     <!-- maximum deviation -->
     <defs>
      <path d="M 52 44.1875 
Q 55.375 50.25 60.0625 53.125 
Q 64.75 56 71.09375 56 
Q 79.640625 56 84.28125 50.015625 
Q 88.921875 44.046875 88.921875 33.015625 
L 88.921875 0 
L 79.890625 0 
L 79.890625 32.71875 
Q 79.890625 40.578125 77.09375 44.375 
Q 74.3125 48.1875 68.609375 48.1875 
Q 61.625 48.1875 57.5625 43.546875 
Q 53.515625 38.921875 53.515625 30.90625 
L 53.515625 0 
L 44.484375 0 
L 44.484375 32.71875 
Q 44.484375 40.625 41.703125 44.40625 
Q 38.921875 48.1875 33.109375 48.1875 
Q 26.21875 48.1875 22.15625 43.53125 
Q 18.109375 38.875 18.109375 30.90625 
L 18.109375 0 
L 9.078125 0 
L 9.078125 54.6875 
L 18.109375 54.6875 
L 18.109375 46.1875 
Q 21.1875 51.21875 25.484375 53.609375 
Q 29.78125 56 35.6875 56 
Q 41.65625 56 45.828125 52.96875 
Q 50 49.953125 52 44.1875 
z
" id="DejaVuSans-109"/>
      <path d="M 54.890625 54.6875 
L 35.109375 28.078125 
L 55.90625 0 
L 45.3125 0 
L 29.390625 21.484375 
L 13.484375 0 
L 2.875 0 
L 24.125 28.609375 
L 4.6875 54.6875 
L 15.28125 54.6875 
L 29.78125 35.203125 
L 44.28125 54.6875 
z
" id="DejaVuSans-120"/>
      <path d="M 9.421875 54.6875 
L 18.40625 54.6875 
L 18.40625 0 
L 9.421875 0 
z
M 9.421875 75.984375 
L 18.40625 75.984375 
L 18.40625 64.59375 
L 9.421875 64.59375 
z
" id="DejaVuSans-105"/>
      <path d="M 8.5 21.578125 
L 8.5 54.6875 
L 17.484375 54.6875 
L 17.484375 21.921875 
Q 17.484375 14.15625 20.5 10.265625 
Q 23.53125 6.390625 29.59375 6.390625 
Q 36.859375 6.390625 41.078125 11.03125 
Q 45.3125 15.671875 45.3125 23.6875 
L 45.3125 54.6875 
L 54.296875 54.6875 
L 54.296875 0 
L 45.3125 0 
L 45.3125 8.40625 
Q 42.046875 3.421875 37.71875 1 
Q 33.40625 -1.421875 27.6875 -1.421875 
Q 18.265625 -1.421875 13.375 4.4375 
Q 8.5 10.296875 8.5 21.578125 
z
M 31.109375 56 
z
" id="DejaVuSans-117"/>
      <path d="M 45.40625 46.390625 
L 45.40625 75.984375 
L 54.390625 75.984375 
L 54.390625 0 
L 45.40625 0 
L 45.40625 8.203125 
Q 42.578125 3.328125 38.25 0.953125 
Q 33.9375 -1.421875 27.875 -1.421875 
Q 17.96875 -1.421875 11.734375 6.484375 
Q 5.515625 14.40625 5.515625 27.296875 
Q 5.515625 40.1875 11.734375 48.09375 
Q 17.96875 56 27.875 56 
Q 33.9375 56 38.25 53.625 
Q 42.578125 51.265625 45.40625 46.390625 
z
M 14.796875 27.296875 
Q 14.796875 17.390625 18.875 11.75 
Q 22.953125 6.109375 30.078125 6.109375 
Q 37.203125 6.109375 41.296875 11.75 
Q 45.40625 17.390625 45.40625 27.296875 
Q 45.40625 37.203125 41.296875 42.84375 
Q 37.203125 48.484375 30.078125 48.484375 
Q 22.953125 48.484375 18.875 42.84375 
Q 14.796875 37.203125 14.796875 27.296875 
z
" id="DejaVuSans-100"/>
      <path d="M 56.203125 29.59375 
L 56.203125 25.203125 
L 14.890625 25.203125 
Q 15.484375 15.921875 20.484375 11.0625 
Q 25.484375 6.203125 34.421875 6.203125 
Q 39.59375 6.203125 44.453125 7.46875 
Q 49.3125 8.734375 54.109375 11.28125 
L 54.109375 2.78125 
Q 49.265625 0.734375 44.1875 -0.34375 
Q 39.109375 -1.421875 33.890625 -1.421875 
Q 20.796875 -1.421875 13.15625 6.1875 
Q 5.515625 13.8125 5.515625 26.8125 
Q 5.515625 40.234375 12.765625 48.109375 
Q 20.015625 56 32.328125 56 
Q 43.359375 56 49.78125 48.890625 
Q 56.203125 41.796875 56.203125 29.59375 
z
M 47.21875 32.234375 
Q 47.125 39.59375 43.09375 43.984375 
Q 39.0625 48.390625 32.421875 48.390625 
Q 24.90625 48.390625 20.390625 44.140625 
Q 15.875 39.890625 15.1875 32.171875 
z
" id="DejaVuSans-101"/>
      <path d="M 2.984375 54.6875 
L 12.5 54.6875 
L 29.59375 8.796875 
L 46.6875 54.6875 
L 56.203125 54.6875 
L 35.6875 0 
L 23.484375 0 
z
" id="DejaVuSans-118"/>
      <path d="M 18.3125 70.21875 
L 18.3125 54.6875 
L 36.8125 54.6875 
L 36.8125 47.703125 
L 18.3125 47.703125 
L 18.3125 18.015625 
Q 18.3125 11.328125 20.140625 9.421875 
Q 21.96875 7.515625 27.59375 7.515625 
L 36.8125 7.515625 
L 36.8125 0 
L 27.59375 0 
Q 17.1875 0 13.234375 3.875 
Q 9.28125 7.765625 9.28125 18.015625 
L 9.28125 47.703125 
L 2.6875 47.703125 
L 2.6875 54.6875 
L 9.28125 54.6875 
L 9.28125 70.21875 
z
" id="DejaVuSans-116"/>
      <path d="M 30.609375 48.390625 
Q 23.390625 48.390625 19.1875 42.75 
Q 14.984375 37.109375 14.984375 27.296875 
Q 14.984375 17.484375 19.15625 11.84375 
Q 23.34375 6.203125 30.609375 6.203125 
Q 37.796875 6.203125 41.984375 11.859375 
Q 46.1875 17.53125 46.1875 27.296875 
Q 46.1875 37.015625 41.984375 42.703125 
Q 37.796875 48.390625 30.609375 48.390625 
z
M 30.609375 56 
Q 42.328125 56 49.015625 48.375 
Q 55.71875 40.765625 55.71875 27.296875 
Q 55.71875 13.875 49.015625 6.21875 
Q 42.328125 -1.421875 30.609375 -1.421875 
Q 18.84375 -1.421875 12.171875 6.21875 
Q 5.515625 13.875 5.515625 27.296875 
Q 5.515625 40.765625 12.171875 48.375 
Q 18.84375 56 30.609375 56 
z
" id="DejaVuSans-111"/>
      <path d="M 54.890625 33.015625 
L 54.890625 0 
L 45.90625 0 
L 45.90625 32.71875 
Q 45.90625 40.484375 42.875 44.328125 
Q 39.84375 48.1875 33.796875 48.1875 
Q 26.515625 48.1875 22.3125 43.546875 
Q 18.109375 38.921875 18.109375 30.90625 
L 18.109375 0 
L 9.078125 0 
L 9.078125 54.6875 
L 18.109375 54.6875 
L 18.109375 46.1875 
Q 21.34375 51.125 25.703125 53.5625 
Q 30.078125 56 35.796875 56 
Q 45.21875 56 50.046875 50.171875 
Q 54.890625 44.34375 54.890625 33.015625 
z
" id="DejaVuSans-110"/>
     </defs>
     <g transform="translate(10.598677 214.841875)rotate(-90)scale(0.1 -0.1)">
      <use xlink:href="#DejaVuSans-109"/>
      <use x="97.412109" xlink:href="#DejaVuSans-97"/>
      <use x="158.691406" xlink:href="#DejaVuSans-120"/>
      <use x="217.871094" xlink:href="#DejaVuSans-105"/>
      <use x="245.654297" xlink:href="#DejaVuSans-109"/>
      <use x="343.066406" xlink:href="#DejaVuSans-117"/>
      <use x="406.445312" xlink:href="#DejaVuSans-109"/>
      <use x="503.857422" xlink:href="#DejaVuSans-32"/>
      <use x="535.644531" xlink:href="#DejaVuSans-100"/>
      <use x="599.121094" xlink:href="#DejaVuSans-101"/>
      <use x="660.644531" xlink:href="#DejaVuSans-118"/>
      <use x="719.824219" xlink:href="#DejaVuSans-105"/>
      <use x="747.607422" xlink:href="#DejaVuSans-97"/>
      <use x="808.886719" xlink:href="#DejaVuSans-116"/>
      <use x="848.095703" xlink:href="#DejaVuSans-105"/>
      <use x="875.878906" xlink:href="#DejaVuSans-111"/>
      <use x="937.060547" xlink:href="#DejaVuSans-110"/>
     </g>
    </g>
   </g>
   <g id="patch_3">
    <path d="M 51.578365 311.521635 
L 51.578365 18.118365 
" style="fill:none;stroke:#000000;stroke-linecap:square;stroke-linejoin:miter;stroke-width:0.8;"/>
   </g>
   <g id="patch_4">
    <path d="M 454.29976 311.521635 
L 454.29976 18.118365 
" style="fill:none;stroke:#000000;stroke-linecap:square;stroke-linejoin:miter;stroke-width:0.8;"/>
   </g>
   <g id="patch_5">
    <path d="M 51.578365 311.521635 
L 454.29976 311.521635 
" style="fill:none;stroke:#000000;stroke-linecap:square;stroke-linejoin:miter;stroke-width:0.8;"/>
   </g>
   <g id="patch_6">
    <path d="M 51.578365 18.118365 
L 454.29976 18.118365 
" style="fill:none;stroke:#000000;stroke-linecap:square;stroke-linejoin:miter;stroke-width:0.8;"/>
   </g>
   <g id="text_10">
    <!-- small: npar = 1, medium: npar = 10, large: npar = 100 -->
    <defs>
     <path d="M 44.28125 53.078125 
L 44.28125 44.578125 
Q 40.484375 46.53125 36.375 47.5 
Q 32.28125 48.484375 27.875 48.484375 
Q 21.1875 48.484375 17.84375 46.4375 
Q 14.5 44.390625 14.5 40.28125 
Q 14.5 37.15625 16.890625 35.375 
Q 19.28125 33.59375 26.515625 31.984375 
L 29.59375 31.296875 
Q 39.15625 29.25 43.1875 25.515625 
Q 47.21875 21.78125 47.21875 15.09375 
Q 47.21875 7.46875 41.1875 3.015625 
Q 35.15625 -1.421875 24.609375 -1.421875 
Q 20.21875 -1.421875 15.453125 -0.5625 
Q 10.6875 0.296875 5.421875 2 
L 5.421875 11.28125 
Q 10.40625 8.6875 15.234375 7.390625 
Q 20.0625 6.109375 24.8125 6.109375 
Q 31.15625 6.109375 34.5625 8.28125 
Q 37.984375 10.453125 37.984375 14.40625 
Q 37.984375 18.0625 35.515625 20.015625 
Q 33.0625 21.96875 24.703125 23.78125 
L 21.578125 24.515625 
Q 13.234375 26.265625 9.515625 29.90625 
Q 5.8125 33.546875 5.8125 39.890625 
Q 5.8125 47.609375 11.28125 51.796875 
Q 16.75 56 26.8125 56 
Q 31.78125 56 36.171875 55.265625 
Q 40.578125 54.546875 44.28125 53.078125 
z
" id="DejaVuSans-115"/>
     <path d="M 11.71875 12.40625 
L 22.015625 12.40625 
L 22.015625 0 
L 11.71875 0 
z
M 11.71875 51.703125 
L 22.015625 51.703125 
L 22.015625 39.3125 
L 11.71875 39.3125 
z
" id="DejaVuSans-58"/>
     <path d="M 10.59375 45.40625 
L 73.1875 45.40625 
L 73.1875 37.203125 
L 10.59375 37.203125 
z
M 10.59375 25.484375 
L 73.1875 25.484375 
L 73.1875 17.1875 
L 10.59375 17.1875 
z
" id="DejaVuSans-61"/>
     <path d="M 11.71875 12.40625 
L 22.015625 12.40625 
L 22.015625 4 
L 14.015625 -11.625 
L 7.71875 -11.625 
L 11.71875 4 
z
" id="DejaVuSans-44"/>
     <path d="M 45.40625 27.984375 
Q 45.40625 37.75 41.375 43.109375 
Q 37.359375 48.484375 30.078125 48.484375 
Q 22.859375 48.484375 18.828125 43.109375 
Q 14.796875 37.75 14.796875 27.984375 
Q 14.796875 18.265625 18.828125 12.890625 
Q 22.859375 7.515625 30.078125 7.515625 
Q 37.359375 7.515625 41.375 12.890625 
Q 45.40625 18.265625 45.40625 27.984375 
z
M 54.390625 6.78125 
Q 54.390625 -7.171875 48.1875 -13.984375 
Q 42 -20.796875 29.203125 -20.796875 
Q 24.46875 -20.796875 20.265625 -20.09375 
Q 16.0625 -19.390625 12.109375 -17.921875 
L 12.109375 -9.1875 
Q 16.0625 -11.328125 19.921875 -12.34375 
Q 23.78125 -13.375 27.78125 -13.375 
Q 36.625 -13.375 41.015625 -8.765625 
Q 45.40625 -4.15625 45.40625 5.171875 
L 45.40625 9.625 
Q 42.625 4.78125 38.28125 2.390625 
Q 33.9375 0 27.875 0 
Q 17.828125 0 11.671875 7.65625 
Q 5.515625 15.328125 5.515625 27.984375 
Q 5.515625 40.671875 11.671875 48.328125 
Q 17.828125 56 27.875 56 
Q 33.9375 56 38.28125 53.609375 
Q 42.625 51.21875 45.40625 46.390625 
L 45.40625 54.6875 
L 54.390625 54.6875 
z
" id="DejaVuSans-103"/>
    </defs>
    <g transform="translate(86.8825 12.118365)scale(0.12 -0.12)">
     <use xlink:href="#DejaVuSans-115"/>
     <use x="52.099609" xlink:href="#DejaVuSans-109"/>
     <use x="149.511719" xlink:href="#DejaVuSans-97"/>
     <use x="210.791016" xlink:href="#DejaVuSans-108"/>
     <use x="238.574219" xlink:href="#DejaVuSans-108"/>
     <use x="266.357422" xlink:href="#DejaVuSans-58"/>
     <use x="300.048828" xlink:href="#DejaVuSans-32"/>
     <use x="331.835938" xlink:href="#DejaVuSans-110"/>
     <use x="395.214844" xlink:href="#DejaVuSans-112"/>
     <use x="458.691406" xlink:href="#DejaVuSans-97"/>
     <use x="519.970703" xlink:href="#DejaVuSans-114"/>
     <use x="561.083984" xlink:href="#DejaVuSans-32"/>
     <use x="592.871094" xlink:href="#DejaVuSans-61"/>
     <use x="676.660156" xlink:href="#DejaVuSans-32"/>
     <use x="708.447266" xlink:href="#DejaVuSans-49"/>
     <use x="772.070312" xlink:href="#DejaVuSans-44"/>
     <use x="803.857422" xlink:href="#DejaVuSans-32"/>
     <use x="835.644531" xlink:href="#DejaVuSans-109"/>
     <use x="933.056641" xlink:href="#DejaVuSans-101"/>
     <use x="994.580078" xlink:href="#DejaVuSans-100"/>
     <use x="1058.056641" xlink:href="#DejaVuSans-105"/>
     <use x="1085.839844" xlink:href="#DejaVuSans-117"/>
     <use x="1149.21875" xlink:href="#DejaVuSans-109"/>
     <use x="1246.630859" xlink:href="#DejaVuSans-58"/>
     <use x="1280.322266" xlink:href="#DejaVuSans-32"/>
     <use x="1312.109375" xlink:href="#DejaVuSans-110"/>
     <use x="1375.488281" xlink:href="#DejaVuSans-112"/>
     <use x="1438.964844" xlink:href="#DejaVuSans-97"/>
     <use x="1500.244141" xlink:href="#DejaVuSans-114"/>
     <use x="1541.357422" xlink:href="#DejaVuSans-32"/>
     <use x="1573.144531" xlink:href="#DejaVuSans-61"/>
     <use x="1656.933594" xlink:href="#DejaVuSans-32"/>
     <use x="1688.720703" xlink:href="#DejaVuSans-49"/>
     <use x="1752.34375" xlink:href="#DejaVuSans-48"/>
     <use x="1815.966797" xlink:href="#DejaVuSans-44"/>
     <use x="1847.753906" xlink:href="#DejaVuSans-32"/>
     <use x="1879.541016" xlink:href="#DejaVuSans-108"/>
     <use x="1907.324219" xlink:href="#DejaVuSans-97"/>
     <use x="1968.603516" xlink:href="#DejaVuSans-114"/>
     <use x="2009.701172" xlink:href="#DejaVuSans-103"/>
     <use x="2073.177734" xlink:href="#DejaVuSans-101"/>
     <use x="2134.701172" xlink:href="#DejaVuSans-58"/>
     <use x="2168.392578" xlink:href="#DejaVuSans-32"/>
     <use x="2200.179688" xlink:href="#DejaVuSans-110"/>
     <use x="2263.558594" xlink:href="#DejaVuSans-112"/>
     <use x="2327.035156" xlink:href="#DejaVuSans-97"/>
     <use x="2388.314453" xlink:href="#DejaVuSans-114"/>
     <use x="2429.427734" xlink:href="#DejaVuSans-32"/>
     <use x="2461.214844" xlink:href="#DejaVuSans-61"/>
     <use x="2545.003906" xlink:href="#DejaVuSans-32"/>
     <use x="2576.791016" xlink:href="#DejaVuSans-49"/>
     <use x="2640.414062" xlink:href="#DejaVuSans-48"/>
     <use x="2704.037109" xlink:href="#DejaVuSans-48"/>
    </g>
   </g>
   <g id="PathCollection_9">
    <path clip-path="url(#p05237524e4)" d="M 135.140804 86.302733 
C 136.078439 86.302733 136.977796 85.930206 137.640804 85.267199 
C 138.303812 84.604191 138.676338 83.704833 138.676338 82.767199 
C 138.676338 81.829564 138.303812 80.930206 137.640804 80.267199 
C 136.977796 79.604191 136.078439 79.231665 135.140804 79.231665 
C 134.20317 79.231665 133.303812 79.604191 132.640804 80.267199 
C 131.977796 80.930206 131.60527 81.829564 131.60527 82.767199 
C 131.60527 83.704833 131.977796 84.604191 132.640804 85.267199 
C 133.303812 85.930206 134.20317 86.302733 135.140804 86.302733 
z
" style="fill:#ffffff;stroke:#000000;"/>
    <path clip-path="url(#p05237524e4)" d="M 88.598106 89.114972 
C 90.265482 89.114972 91.864791 88.452516 93.043804 87.273503 
C 94.222817 86.09449 94.885273 84.495181 94.885273 82.827805 
C 94.885273 81.160428 94.222817 79.561119 93.043804 78.382106 
C 91.864791 77.203093 90.265482 76.540638 88.598106 76.540638 
C 86.93073 76.540638 85.33142 77.203093 84.152407 78.382106 
C 82.973394 79.561119 82.310939 81.160428 82.310939 82.827805 
C 82.310939 84.495181 82.973394 86.09449 84.152407 87.273503 
C 85.33142 88.452516 86.93073 89.114972 88.598106 89.114972 
z
" style="fill:#ffffff;stroke:#000000;"/>
    <path clip-path="url(#p05237524e4)" d="M 76.806957 95.346819 
C 79.772017 95.346819 82.616036 94.168788 84.712651 92.072173 
C 86.809265 89.975559 87.987296 87.13154 87.987296 84.166479 
C 87.987296 81.201418 86.809265 78.3574 84.712651 76.260785 
C 82.616036 74.16417 79.772017 72.986139 76.806957 72.986139 
C 73.841896 72.986139 70.997877 74.16417 68.901262 76.260785 
C 66.804648 78.3574 65.626617 81.201418 65.626617 84.166479 
C 65.626617 87.13154 66.804648 89.975559 68.901262 92.072173 
C 70.997877 94.168788 73.841896 95.346819 76.806957 95.346819 
z
" style="fill:#ffffff;stroke:#000000;"/>
   </g>
   <g id="PathCollection_10">
    <path clip-path="url(#p05237524e4)" d="M 162.639728 95.345455 
L 169.710796 95.345455 
L 169.710796 88.274387 
L 162.639728 88.274387 
z
" style="fill:#ffffff;stroke:#000000;"/>
    <path clip-path="url(#p05237524e4)" d="M 176.665426 98.399293 
L 189.239761 98.399293 
L 189.239761 85.824959 
L 176.665426 85.824959 
z
" style="fill:#ffffff;stroke:#000000;"/>
    <path clip-path="url(#p05237524e4)" d="M 252.595873 102.661786 
L 274.956553 102.661786 
L 274.956553 80.301106 
L 252.595873 80.301106 
z
" style="fill:#ffffff;stroke:#000000;"/>
   </g>
   <g id="PathCollection_11">
    <path clip-path="url(#p05237524e4)" d="M 184.307467 96.809922 
L 189.307467 91.809922 
L 184.307467 86.809922 
L 179.307467 91.809922 
z
" style="fill:#ffffff;stroke:#000000;"/>
    <path clip-path="url(#p05237524e4)" d="M 180.891469 99.797025 
L 189.782866 90.905628 
L 180.891469 82.014231 
L 172.000072 90.905628 
z
" style="fill:#ffffff;stroke:#000000;"/>
    <path clip-path="url(#p05237524e4)" d="M 337.443024 121.685499 
L 353.254412 105.874111 
L 337.443024 90.062723 
L 321.631636 105.874111 
z
" style="fill:#ffffff;stroke:#000000;"/>
   </g>
  </g>
 </g>
 <defs>
  <clipPath id="p05237524e4">
   <rect height="293.40327" width="402.721395" x="51.578365" y="18.118365"/>
  </clipPath>
 </defs>
</svg>
