<?xml version="1.0" encoding="UTF-8" standalone="no"?>
<svg
   xmlns:dc="http://purl.org/dc/elements/1.1/"
   xmlns:cc="http://creativecommons.org/ns#"
   xmlns:rdf="http://www.w3.org/1999/02/22-rdf-syntax-ns#"
   xmlns:svg="http://www.w3.org/2000/svg"
   xmlns="http://www.w3.org/2000/svg"
   xmlns:sodipodi="http://sodipodi.sourceforge.net/DTD/sodipodi-0.dtd"
   xmlns:inkscape="http://www.inkscape.org/namespaces/inkscape"
   width="130mm"
   height="30mm"
   viewBox="0 0 130 30"
   version="1.1"
   id="svg8"
   inkscape:version="1.0beta2 (2b71d25, 2019-12-03)"
   sodipodi:docname="iminuit_logo.svg">
  <defs
     id="defs2">
    <marker
       inkscape:stockid="Arrow2Mend"
       orient="auto"
       refY="0"
       refX="0"
       id="Arrow2Mend"
       style="overflow:visible"
       inkscape:isstock="true">
      <path
         id="path938"
         style="fill:#3344b5;fill-opacity:1;fill-rule:evenodd;stroke:#3344b5;stroke-width:0.625;stroke-linejoin:round;stroke-opacity:1"
         d="M 8.7185878,4.0337352 -2.2072895,0.01601326 8.7185884,-4.0017078 c -1.7454984,2.3720609 -1.7354408,5.6174519 -6e-7,8.035443 z"
         transform="scale(-0.6)"
         inkscape:connector-curvature="0" />
    </marker>
    <marker
       inkscape:stockid="Arrow1Send"
       orient="auto"
       refY="0"
       refX="0"
       id="Arrow1Send"
       style="overflow:visible"
       inkscape:isstock="true">
      <path
         id="path926"
         d="M 0,0 5,-5 -12.5,0 5,5 Z"
         style="fill:#0000ff;fill-opacity:1;fill-rule:evenodd;stroke:#0000ff;stroke-width:1pt;stroke-opacity:1"
         transform="matrix(-0.2,0,0,-0.2,-1.2,0)"
         inkscape:connector-curvature="0" />
    </marker>
    <marker
       inkscape:stockid="Arrow1Mend"
       orient="auto"
       refY="0"
       refX="0"
       id="Arrow1Mend"
       style="overflow:visible"
       inkscape:isstock="true">
      <path
         id="path920"
         d="M 0,0 5,-5 -12.5,0 5,5 Z"
         style="fill:#0000ff;fill-opacity:1;fill-rule:evenodd;stroke:#0000ff;stroke-width:1pt;stroke-opacity:1"
         transform="matrix(-0.4,0,0,-0.4,-4,0)"
         inkscape:connector-curvature="0" />
    </marker>
    <marker
       inkscape:stockid="Arrow1Lstart"
       orient="auto"
       refY="0"
       refX="0"
       id="Arrow1Lstart"
       style="overflow:visible"
       inkscape:isstock="true">
      <path
         id="path911"
         d="M 0,0 5,-5 -12.5,0 5,5 Z"
         style="fill:#0000ff;fill-opacity:1;fill-rule:evenodd;stroke:#0000ff;stroke-width:1pt;stroke-opacity:1"
         transform="matrix(0.8,0,0,0.8,10,0)"
         inkscape:connector-curvature="0" />
    </marker>
  </defs>
  <sodipodi:namedview
     id="base"
     pagecolor="#ffffff"
     bordercolor="#666666"
     borderopacity="1.0"
     inkscape:pageopacity="0.0"
     inkscape:pageshadow="2"
     inkscape:zoom="1.4144975"
     inkscape:cx="196.5608"
     inkscape:cy="4.9438373"
     inkscape:document-units="mm"
     inkscape:current-layer="layer1"
     inkscape:document-rotation="0"
     showgrid="false"
     showguides="false"
     inkscape:guide-bbox="true"
     inkscape:window-width="1600"
     inkscape:window-height="880"
     inkscape:window-x="1968"
     inkscape:window-y="43"
     inkscape:window-maximized="0"
     fit-margin-top="0"
     fit-margin-left="0"
     fit-margin-right="0"
     fit-margin-bottom="0">
    <sodipodi:guide
       position="61.561296,14.58042"
       orientation="0,-1"
       id="guide909" />
  </sodipodi:namedview>
  <metadata
     id="metadata5">
    <rdf:RDF>
      <cc:Work
         rdf:about="">
        <dc:format>image/svg+xml</dc:format>
        <dc:type
           rdf:resource="http://purl.org/dc/dcmitype/StillImage" />
        <dc:title></dc:title>
      </cc:Work>
    </rdf:RDF>
  </metadata>
  <g
     inkscape:label="Layer 1"
     inkscape:groupmode="layer"
     id="layer1"
     transform="translate(-45.405964,-92.165336)">
    <path
       inkscape:connector-curvature="0"
       id="path859"
       style="font-style:italic;font-variant:normal;font-weight:normal;font-stretch:normal;font-size:22.5778px;line-height:1.25;font-family:'DejaVu Sans Mono for Powerline';-inkscape-font-specification:'DejaVu Sans Mono for Powerline';fill:#d40000;stroke-width:0.456359"
       d="m 52.222588,96.291702 q 0,-1.06484 0.665525,-1.78741 0.665524,-0.741584 1.521199,-0.741584 0.665524,0 1.045825,0.41833 0.399314,0.399314 0.399314,1.121884 0,0.98878 -0.570449,1.82544 -0.570451,0.817644 -1.521199,0.817644 -0.665526,0 -1.10287,-0.456359 -0.437345,-0.456361 -0.437345,-1.197945 z m -4.905869,10.781508 -0.323254,-0.7606 q 3.365654,-2.33884 4.506553,-2.89028 1.1409,-0.55143 1.78741,-0.55143 0.361285,0 0.551435,0.24719 0.266209,0.36129 0.266209,1.04583 0,0.32325 -0.133105,0.91272 -0.247194,1.1409 -1.045824,4.16428 -2.072635,7.70107 -2.072635,9.08918 0,0.39931 0.133105,0.58945 0.152129,0.17111 0.399315,0.17111 0.3803,0 0.95075,-0.26621 0.589465,-0.28524 2.129679,-1.42614 l 0.380301,0.76061 q -3.08043,2.35785 -4.63966,3.15648 -0.741584,0.38031 -1.235974,0.38031 -0.475375,0 -0.855676,-0.43735 -0.361284,-0.43734 -0.361284,-1.21696 0,-0.60847 0.133104,-1.35006 0.133105,-0.74158 0.665525,-2.68111 2.224754,-7.9863 2.224754,-9.8878 0,-0.39932 -0.114097,-0.53242 -0.09507,-0.15211 -0.285225,-0.15211 -0.228181,0 -0.551435,0.1331 -0.152112,0.0761 -2.509979,1.50219 z" />
    <path
       inkscape:connector-curvature="0"
       id="path861"
       style="font-style:normal;font-variant:normal;font-weight:normal;font-stretch:normal;font-size:22.5778px;line-height:1.25;font-family:Palatino;-inkscape-font-specification:Palatino;stroke-width:0.456359"
       d="m 57.204517,121.23939 v -1.08386 l 1.806424,-0.019 q 0.399314,-0.019 0.608479,-0.13315 0.228181,-0.13316 0.342271,-0.32327 0.209164,-0.38029 0.266209,-1.35005 0,-0.2472 0.114097,-5.45731 v -2.26279 q 0,-1.52119 -0.05704,-3.27058 -0.05704,-1.12188 -0.19015,-1.33104 -0.114097,-0.20917 -0.418329,-0.30425 -0.30424,-0.11409 -2.471949,-0.0951 v -1.08385 q 3.841028,-0.53242 5.609422,-1.3881 0.380299,-0.19015 0.513406,-0.19015 0.133104,0 0.209164,0.0951 0.07606,0.0951 0.07606,0.28522 0,0.13311 -0.01901,0.30424 -0.07606,0.91272 -0.114097,2.71914 l 2.490965,-2.28179 q 0.475375,-0.41833 0.589465,-0.47538 0.437344,-0.24719 1.254988,-0.45636 0.817645,-0.20916 1.71135,-0.20916 1.825439,0 3.251564,0.8937 1.426125,0.89371 2.186725,2.64308 l 2.091648,-1.93952 q 0.703555,-0.64651 0.969766,-0.79863 0.49439,-0.28523 1.407109,-0.53242 0.91272,-0.2472 1.806424,-0.2472 2.16771,0 3.631865,1.15992 1.464154,1.1409 1.882484,2.60505 0.266209,0.96977 0.266209,4.1833 v 1.97756 l 0.05704,2.64309 q 0.05704,2.30081 0.05704,2.70012 0.03803,0.95076 0.22818,1.3881 0.07606,0.17111 0.22818,0.30423 0.171137,0.11401 0.475375,0.19016 0.114097,0.019 2.09165,0.0571 v 1.08386 q -2.395889,-0.11418 -3.27058,-0.11418 -0.83666,0 -3.365654,0.11418 l 0.171137,-5.24815 0.05704,-2.05361 v -1.63529 q 0,-3.19452 -0.323254,-4.35443 -0.323256,-1.17893 -1.36908,-1.9015 -1.026809,-0.72257 -2.395889,-0.72257 -1.578244,0 -2.85225,0.91272 -0.95075,0.70355 -1.25499,1.65431 -0.30424,0.95074 -0.30424,3.70792 v 1.27401 l 0.05704,2.64308 q 0.03803,2.30081 0.05704,2.70012 0.03803,0.95076 0.22818,1.38811 0.07606,0.1711 0.22818,0.30422 0.152113,0.11401 0.456359,0.19016 0.133105,0.019 2.110666,0.0571 v 1.08387 q -2.795205,-0.15213 -4.487539,-0.15213 -1.36908,0 -4.981928,0.15213 v -1.08387 l 1.806424,-0.019 q 0.41833,-0.019 0.627494,-0.13316 0.22818,-0.13315 0.34227,-0.32326 0.209166,-0.38029 0.247195,-1.35006 0.01902,-0.2472 0.114097,-5.4573 v -1.48318 q 0,-2.45294 -0.380299,-3.57481 -0.380301,-1.1409 -1.331049,-1.80643 -0.95075,-0.68454 -2.2818,-0.68454 -1.140899,0 -2.167711,0.49439 -1.007793,0.47538 -1.559229,1.19795 -0.551435,0.72256 -0.665525,1.54022 -0.190149,1.31202 -0.190149,3.15647 v 1.15993 q 0.114097,4.94389 0.114097,5.34321 0.03803,0.95075 0.22818,1.3881 0.07606,0.1711 0.22818,0.30423 0.152112,0.11401 0.475375,0.19016 0.114097,0.019 2.091648,0.0571 v 1.08386 q -2.624068,-0.15213 -4.468523,-0.15213 -1.635289,0 -4.943898,0.15213 z" />
    <path
       inkscape:connector-curvature="0"
       id="path863"
       style="font-style:normal;font-variant:normal;font-weight:normal;font-stretch:normal;font-size:22.5778px;line-height:1.25;font-family:Palatino;-inkscape-font-specification:Palatino;stroke-width:0.456359"
       d="m 96.280324,94.466262 q 0.893714,0 1.502191,0.627496 0.627497,0.627494 0.627497,1.521199 0,0.87469 -0.627497,1.502184 -0.627497,0.627496 -1.502191,0.627496 -0.893697,0 -1.521194,-0.627496 -0.627494,-0.627494 -0.627494,-1.502184 0,-0.893705 0.627494,-1.521199 0.627497,-0.627496 1.521194,-0.627496 z m -4.639653,11.123778 v -1.08385 q 3.688906,-0.41833 6.198884,-1.59726 l 0.418337,0.30424 q -0.15212,4.05019 -0.15212,6.19888 v 3.46074 q 0.0951,4.9439 0.1141,5.34321 0.019,0.95076 0.209167,1.3881 0.0951,0.1711 0.24719,0.30423 0.15211,0.11401 0.456367,0.19016 0.11409,0.019 2.110664,0.0571 v 1.08386 q -2.890278,-0.13316 -4.620649,-0.13316 -1.521201,0 -4.981926,0.13316 v -1.08386 l 1.806424,-0.019 q 0.399317,-0.019 0.608477,-0.13316 0.228187,-0.13316 0.342277,-0.32327 0.20916,-0.38029 0.2662,-1.35005 0,-0.2472 0.114097,-5.4573 v -3.34664 q 0,-2.83324 -0.190147,-3.36566 -0.11409,-0.28523 -0.418327,-0.41833 -0.28523,-0.15212 -2.528994,-0.15212 z" />
    <path
       inkscape:connector-curvature="0"
       id="path865"
       style="font-style:normal;font-variant:normal;font-weight:normal;font-stretch:normal;font-size:22.5778px;line-height:1.25;font-family:Palatino;-inkscape-font-specification:Palatino;stroke-width:0.456359"
       d="m 102.65036,121.23939 v -1.08386 l 1.80643,-0.019 q 0.39931,-0.019 0.60848,-0.13315 0.22818,-0.13316 0.34227,-0.32327 0.20916,-0.38029 0.26621,-1.35005 0,-0.2472 0.11409,-5.45731 v -2.26279 q 0,-1.52119 -0.057,-3.27058 -0.057,-1.12188 -0.19015,-1.33104 -0.11408,-0.20917 -0.41833,-0.30425 -0.30424,-0.11409 -2.47195,-0.0951 v -1.08385 q 3.84103,-0.53242 5.60943,-1.3881 0.3803,-0.19015 0.5134,-0.19015 0.13311,0 0.20917,0.0951 0.0761,0.0951 0.0761,0.28522 0,0.13311 -0.019,0.30424 -0.057,0.68454 -0.1141,2.89028 l 3.53679,-3.02338 q 1.55923,-0.57045 2.94732,-0.57045 1.54022,0 2.90929,0.62749 1.3881,0.6275 2.07264,1.57825 0.70356,0.95075 0.93173,2.39588 0.13311,0.85568 0.13311,4.77277 v 3.36565 q 0,2.47195 0.1331,3.36566 0.0951,0.57045 0.28523,0.79863 0.20916,0.20915 0.62749,0.26621 l 2.03461,0.0571 v 1.08386 q -1.86347,-0.13315 -3.09945,-0.13315 -1.06484,0 -3.53679,0.13315 0.26621,-4.69671 0.26621,-5.93268 v -3.19453 q 0,-2.98534 -0.22818,-3.91709 -0.32325,-1.27399 -1.46415,-2.05361 -1.1409,-0.77961 -2.75717,-0.77961 -1.42613,0 -2.60506,0.68454 -1.17893,0.66552 -1.69233,1.55922 -0.49439,0.8747 -0.49439,2.96634 v 2.30083 q 0.11409,4.94389 0.11409,5.3432 0.038,0.95076 0.22818,1.38811 0.0761,0.1711 0.22818,0.30422 0.15211,0.11401 0.47538,0.19016 0.11409,0.019 2.09165,0.0571 v 1.08387 q -2.31983,-0.13316 -4.20232,-0.13316 -1.59726,0 -5.2101,0.13316 z" />
    <path
       inkscape:connector-curvature="0"
       id="path867"
       style="font-style:normal;font-variant:normal;font-weight:normal;font-stretch:normal;font-size:22.5778px;line-height:1.25;font-family:Palatino;-inkscape-font-specification:Palatino;stroke-width:0.456359"
       d="m 147.27855,120.15553 v 1.08386 q -2.49097,-0.13316 -3.76496,-0.13316 -1.40711,0 -2.85226,0.13316 0.1141,-1.54022 0.17114,-3.46074 -1.1409,0.91273 -2.71914,2.49097 -0.36129,0.36129 -0.70356,0.53242 -0.81764,0.45636 -1.63529,0.6465 -0.81764,0.20917 -1.95854,0.20917 -1.54022,0 -2.58604,-0.41832 -1.02681,-0.41834 -1.7684,-1.27401 -0.55143,-0.6275 -0.85567,-1.61628 -0.28522,-1.00779 -0.28522,-2.4149 0,-0.66553 0.038,-1.25498 0.057,-0.58948 0.057,-1.15993 v -3.25155 q 0,-0.4944 -0.057,-2.49097 -0.038,-1.25499 -0.17114,-1.63529 -0.0761,-0.19015 -0.24719,-0.30424 -0.28523,-0.19015 -1.0078,-0.19015 -1.04582,0 -1.6543,-0.019 v -1.08385 q 4.08822,-0.45636 5.93267,-1.46415 0.30424,-0.17114 0.47538,-0.17114 0.1331,0 0.20916,0.0951 0.0951,0.0951 0.0951,0.28522 0,0.15212 -0.019,0.38031 -0.0761,0.60847 -0.13311,2.33884 -0.11409,3.1755 -0.11409,4.25936 v 3.70792 q 0,2.31982 0.30424,3.27058 0.32325,0.93173 1.21695,1.50218 0.91272,0.55144 2.24377,0.55144 0.91272,0 1.80643,-0.30424 0.91272,-0.32326 1.63529,-0.91272 0.53242,-0.43735 1.08385,-1.17894 0.41833,-0.55142 0.55144,-0.83666 0.1331,-0.30424 0.17113,-0.87469 0.0951,-1.67332 0.0951,-3.32761 v -1.59726 q 0,-0.4944 -0.057,-2.49097 -0.038,-1.25499 -0.17114,-1.63529 -0.0761,-0.19015 -0.2472,-0.30424 -0.28522,-0.19015 -1.00779,-0.19015 -1.04583,0 -1.6543,-0.019 v -1.08385 q 4.08821,-0.45636 5.93267,-1.46416 0.30424,-0.17114 0.47538,-0.17114 0.13315,0 0.20917,0.0951 0.095,0.0951 0.095,0.28522 0,0.15211 -0.019,0.3803 -0.0571,0.60848 -0.13315,2.41491 -0.11401,3.09943 -0.11401,4.18329 v 2.60506 l 0.0379,2.64308 q 0.0571,2.30081 0.0761,2.70012 0.019,0.95076 0.20917,1.38811 0.095,0.1711 0.2472,0.30422 0.15213,0.11401 0.45635,0.19016 0.11401,0.019 2.11067,0.0571 z" />
    <path
       inkscape:connector-curvature="0"
       id="path869"
       style="font-style:normal;font-variant:normal;font-weight:normal;font-stretch:normal;font-size:22.5778px;line-height:1.25;font-family:Palatino;-inkscape-font-specification:Palatino;stroke-width:0.456359"
       d="m 149.14201,105.59004 v -1.08385 c 2.45927,-0.27889 4.52558,-0.81131 6.1989,-1.59726 l 0.41834,0.30424 c -0.10142,2.70013 -0.15213,4.76642 -0.15213,6.19888 v 3.46074 c 0.0633,3.29593 0.10142,5.077 0.11418,5.34321 0.0121,0.63384 0.0824,1.09654 0.20917,1.3881 0.0633,0.11401 0.14575,0.21548 0.24718,0.30423 0.10142,0.0761 0.25354,0.13936 0.45636,0.19016 0.0761,0.0121 0.77957,0.0317 2.11066,0.0571 v 1.08386 c -1.92685,-0.0888 -3.46706,-0.13316 -4.62064,-0.13316 -1.01413,0 -2.67477,0.0443 -4.98193,0.13316 v -1.08386 l 1.80643,-0.019 c 0.2662,-0.0121 0.46903,-0.0571 0.60848,-0.13316 0.15213,-0.0888 0.26621,-0.19653 0.34227,-0.32327 0.13937,-0.25353 0.22818,-0.70353 0.26621,-1.35005 0,-0.16489 0.0379,-1.98391 0.11401,-5.4573 v -3.34664 c 0,-1.88882 -0.0633,-3.01072 -0.19016,-3.36566 -0.0761,-0.19015 -0.21545,-0.3296 -0.41832,-0.41833 -0.19016,-0.10141 -1.03315,-0.15212 -2.52901,-0.15212 z"
       sodipodi:nodetypes="ccccscccccccscccccccscccc" />
    <path
       inkscape:connector-curvature="0"
       id="path871"
       style="font-style:normal;font-variant:normal;font-weight:normal;font-stretch:normal;font-size:22.5778px;line-height:1.25;font-family:Palatino;-inkscape-font-specification:Palatino;stroke-width:0.456359"
       d="M 160.49397,106.33163 V 105.533 q 1.90152,-0.72257 3.02339,-1.29302 0,-4.525579 -0.11418,-5.780569 1.97756,-0.68454 3.21353,-1.464155 l 0.45637,0.380301 q -0.20917,1.578244 -0.45637,6.959493 1.52121,0.019 1.82545,0.019 0.1711,0 1.95854,-0.038 0.98879,-0.019 1.48317,-0.0761 l 0.13316,0.13311 -0.39931,1.76839 q -1.19794,-0.019 -2.20574,-0.019 -1.0078,0 -2.79522,0.019 l -0.11401,7.73911 q -0.0571,2.83323 0.0381,3.38465 0.095,0.55145 0.36128,0.96977 0.26621,0.39931 0.68453,0.64651 0.43735,0.24721 1.46417,0.38031 0.7796,0 1.25498,-0.0571 0.49439,-0.0761 1.23598,-0.34226 l 0.22817,0.74159 q -0.8937,0.70354 -1.73036,1.46415 -0.72256,0.26621 -1.35007,0.34227 -0.62749,0.095 -1.44512,0.095 -1.0078,0 -1.61628,-0.22819 -0.58946,-0.22818 -1.08386,-0.62749 -0.49439,-0.41832 -0.81764,-1.04581 -0.32326,-0.62751 -0.41834,-1.97757 0.019,-1.29303 0.0761,-2.83324 0.019,-0.30424 0.019,-0.66552 v -7.89122 h -0.7796 q -0.95076,0 -2.12969,0.0951 z" />
    <g
       transform="matrix(1.7248229,0,0,1.7248229,-31.323781,-65.216044)"
       id="g2344">
      <path
         sodipodi:nodetypes="ccc"
         inkscape:connector-curvature="0"
         id="path907"
         d="m 106.96726,93.785342 c -7.413226,-3.601301 -11.138868,0.885533 -11.622766,2.929316 -0.87186,3.048483 2.288411,4.733352 1.08668,8.835192"
         style="fill:none;stroke:#3344b5;stroke-width:0.529167;stroke-linecap:butt;stroke-linejoin:miter;stroke-miterlimit:4;stroke-dasharray:1.5875, 0.529167;stroke-dashoffset:0;stroke-opacity:1" />
      <path
         d="m 107.06727,92.556921 c 0.34543,0 0.63573,0.12127 0.87092,0.36381 0.24253,0.24253 0.3638,0.53651 0.3638,0.88194 0,0.33808 -0.12127,0.62839 -0.3638,0.87092 -0.24254,0.24254 -0.53284,0.3638 -0.87092,0.3638 -0.34543,0 -0.63942,-0.12126 -0.88195,-0.3638 -0.24253,-0.24253 -0.3638,-0.53284 -0.3638,-0.87092 0,-0.34543 0.12127,-0.63941 0.3638,-0.88194 0.24253,-0.24254 0.53652,-0.36381 0.88195,-0.36381 z"
         style="font-style:normal;font-variant:normal;font-weight:normal;font-stretch:normal;font-size:22.5778px;line-height:1.25;font-family:Palatino;-inkscape-font-specification:Palatino;fill:#ffffff;fill-opacity:1;stroke:#3344b5;stroke-width:0.529167;stroke-miterlimit:4;stroke-dasharray:1.05833, 0.529167;stroke-dashoffset:0;stroke-opacity:1"
         id="path869-5-8"
         inkscape:connector-curvature="0"
         sodipodi:nodetypes="scscscscs" />
    </g>
    <path
       d="m 135.30111,115.01024 c 0.5958,0 1.09652,0.20917 1.50218,0.62751 0.41832,0.41832 0.62749,0.92539 0.62749,1.52119 0,0.58313 -0.20917,1.08386 -0.62749,1.50218 -0.41833,0.41834 -0.91906,0.62749 -1.50218,0.62749 -0.59581,0 -1.10288,-0.20915 -1.52121,-0.62749 -0.41833,-0.41832 -0.62749,-0.91905 -0.62749,-1.50218 0,-0.5958 0.20916,-1.10287 0.62749,-1.52119 0.41833,-0.41834 0.9254,-0.62751 1.52121,-0.62751 z"
       style="font-style:normal;font-variant:normal;font-weight:normal;font-stretch:normal;font-size:22.5778px;line-height:1.25;font-family:Palatino;-inkscape-font-specification:Palatino;fill:#5d7de9;fill-opacity:1;stroke:none;stroke-width:0.456359;stroke-opacity:1"
       id="path869-5"
       inkscape:connector-curvature="0"
       sodipodi:nodetypes="scscscscs" />
  </g>
</svg>
